<?xml version="1.0" encoding="UTF-8" standalone="no"?>
<!DOCTYPE svg PUBLIC "-//W3C//DTD SVG 1.1//EN" "http://www.w3.org/Graphics/SVG/1.1/DTD/svg11.dtd">
<svg width="100%" height="100%" viewBox="0 0 1032 220" version="1.1" xmlns="http://www.w3.org/2000/svg" xmlns:xlink="http://www.w3.org/1999/xlink" xml:space="preserve" xmlns:serif="http://www.serif.com/" style="fill-rule:evenodd;clip-rule:evenodd;stroke-linejoin:round;stroke-miterlimit:2;">
    <g transform="matrix(1,0,0,1,-19.7486,-394.379)">
        <g transform="matrix(1.2,0,0,1,-295.262,46.9669)">
            <g>
                <g>
                    <g transform="matrix(300,0,0,300,259.509,562.212)">
                        <g>
                            <path d="M0.535,-0.5L0.535,-0L0.35,-0L0.35,-0.324L0.253,-0.324L0.253,-0L0.068,-0L0.068,-0.324L0.01,-0.324L0.01,-0.5L0.068,-0.5C0.068,-0.571 0.09,-0.624 0.134,-0.661C0.178,-0.698 0.243,-0.716 0.33,-0.716C0.378,-0.716 0.423,-0.711 0.465,-0.7L0.465,-0.548C0.42,-0.555 0.38,-0.558 0.345,-0.558C0.284,-0.558 0.253,-0.539 0.253,-0.5L0.535,-0.5Z" style="fill-rule:nonzero;"/>
                        </g>
                    </g>
                    <g transform="matrix(1,0,0,1,425.709,562.212)">
                        <g transform="matrix(300,0,0,300,0,0)">
                            <path d="M0.359,-0.514C0.414,-0.514 0.458,-0.495 0.491,-0.458C0.524,-0.42 0.54,-0.364 0.54,-0.289L0.54,-0L0.355,-0L0.355,-0.269C0.355,-0.314 0.334,-0.336 0.293,-0.336C0.271,-0.336 0.254,-0.329 0.243,-0.315C0.231,-0.301 0.225,-0.282 0.225,-0.257L0.225,-0L0.04,-0L0.04,-0.5L0.225,-0.5L0.225,-0.451C0.256,-0.493 0.3,-0.514 0.359,-0.514Z" style="fill-rule:nonzero;"/>
                        </g>
                        <g transform="matrix(300,0,0,300,171.9,0)">
                            <path d="M0.381,-0.7L0.566,-0.7L0.566,-0L0.381,-0L0.381,-0.045C0.349,-0.006 0.304,0.014 0.247,0.014C0.18,0.014 0.125,-0.011 0.082,-0.061C0.039,-0.111 0.018,-0.174 0.018,-0.25C0.018,-0.326 0.039,-0.389 0.082,-0.439C0.125,-0.489 0.18,-0.514 0.247,-0.514C0.304,-0.514 0.349,-0.494 0.381,-0.455L0.381,-0.7ZM0.227,-0.183C0.244,-0.165 0.265,-0.156 0.292,-0.156C0.319,-0.156 0.34,-0.165 0.357,-0.183C0.373,-0.201 0.381,-0.223 0.381,-0.25C0.381,-0.277 0.373,-0.299 0.357,-0.317C0.34,-0.335 0.319,-0.344 0.292,-0.344C0.265,-0.344 0.244,-0.335 0.228,-0.317C0.211,-0.299 0.203,-0.277 0.203,-0.25C0.203,-0.223 0.211,-0.201 0.227,-0.183Z" style="fill-rule:nonzero;"/>
                        </g>
                        <g transform="matrix(300,0,0,300,353.1,0)">
                            <path d="M0.205,-0.187C0.221,-0.154 0.255,-0.137 0.307,-0.137C0.338,-0.137 0.366,-0.148 0.392,-0.169L0.513,-0.067C0.463,-0.013 0.392,0.014 0.301,0.014C0.216,0.014 0.147,-0.011 0.096,-0.061C0.044,-0.11 0.018,-0.173 0.018,-0.248C0.018,-0.324 0.043,-0.387 0.094,-0.438C0.144,-0.489 0.207,-0.514 0.284,-0.514C0.36,-0.514 0.423,-0.489 0.472,-0.44C0.521,-0.39 0.545,-0.327 0.545,-0.252C0.545,-0.23 0.542,-0.208 0.537,-0.187L0.205,-0.187ZM0.202,-0.306L0.37,-0.306C0.359,-0.346 0.332,-0.366 0.289,-0.366C0.246,-0.366 0.217,-0.346 0.202,-0.306Z" style="fill-rule:nonzero;"/>
                        </g>
                        <g transform="matrix(300,0,0,300,521.1,0)">
                            <path d="M0.225,-0.403C0.234,-0.437 0.253,-0.463 0.28,-0.482C0.307,-0.501 0.339,-0.51 0.375,-0.51L0.375,-0.31C0.335,-0.315 0.3,-0.308 0.27,-0.287C0.24,-0.266 0.225,-0.232 0.225,-0.186L0.225,-0L0.04,-0L0.04,-0.5L0.225,-0.5L0.225,-0.403Z" style="fill-rule:nonzero;"/>
                        </g>
                        <g transform="matrix(300,0,0,300,617.1,0)">
                            <path d="M0.231,-0.018C0.209,0.004 0.182,0.015 0.15,0.015C0.118,0.015 0.091,0.004 0.069,-0.019C0.046,-0.041 0.035,-0.068 0.035,-0.1C0.035,-0.132 0.046,-0.159 0.069,-0.182C0.091,-0.204 0.118,-0.215 0.15,-0.215C0.182,-0.215 0.209,-0.204 0.232,-0.182C0.254,-0.159 0.265,-0.132 0.265,-0.1C0.265,-0.068 0.254,-0.041 0.231,-0.018Z" style="fill-rule:nonzero;"/>
                        </g>
                    </g>
                </g>
            </g>
        </g>
    </g>
</svg>
